<?xml version="1.0" encoding="UTF-8"?>
<svg version="1.1" xmlns="http://www.w3.org/2000/svg" width="500" height="500">
<path d="M0 0 C165 0 330 0 500 0 C500 165 500 330 500 500 C335 500 170 500 0 500 C0 335 0 170 0 0 Z " fill="#FEFEFE" transform="translate(0,0)"/>
<path d="M0 0 C10.39289121 7.59480512 16.25548465 17.92077297 18.4609375 30.45703125 C20.0468065 27.28529325 19.83960195 23.82189303 20.0234375 20.33203125 C20.08821289 19.20087891 20.08821289 19.20087891 20.15429688 18.046875 C20.2604207 16.18381237 20.36118751 14.32044601 20.4609375 12.45703125 C20.7909375 12.45703125 21.1209375 12.45703125 21.4609375 12.45703125 C21.4609375 14.43703125 21.4609375 16.41703125 21.4609375 18.45703125 C22.02941406 18.70195312 22.59789062 18.946875 23.18359375 19.19921875 C30.99480374 23.51347195 37.64986111 32.02380207 40.4609375 40.45703125 C40.98952848 45.00637988 40.897095 48.51202334 38.9609375 52.70703125 C34.87527999 57.20125451 29.37746386 60.85797007 23.4609375 62.45703125 C19.53447736 61.91731164 16.16958477 60.59934348 12.5234375 59.08203125 C-7.5202467 51.21908937 -28.28967508 51.07868621 -49.1015625 55.58203125 C-53.44681277 56.49098666 -57.09805007 56.98393103 -61.5390625 56.45703125 C-66.88788949 52.6885395 -69.80340636 46.63318025 -70.92578125 40.26171875 C-71.398547 31.16505354 -67.87292663 23.56387369 -61.9765625 16.83203125 C-58.04097235 12.62433453 -58.04097235 12.62433453 -54.5390625 11.45703125 C-54.40628906 12.57722656 -54.27351563 13.69742188 -54.13671875 14.8515625 C-53.95849681 16.32423854 -53.78010239 17.79689372 -53.6015625 19.26953125 C-53.51455078 20.00751953 -53.42753906 20.74550781 -53.33789062 21.50585938 C-52.95689704 24.62436246 -52.53536876 27.46811247 -51.5390625 30.45703125 C-51.50167969 29.64621094 -51.46429688 28.83539063 -51.42578125 28 C-50.20520953 7.44174299 -50.20520953 7.44174299 -42.5390625 0.45703125 C-29.4799608 -7.8183153 -13.24276668 -8.04752745 0 0 Z " fill="#FEFDFC" transform="translate(267.5390625,109.54296875)"/>
<path d="M0 0 C7.4983297 1.43200001 14.33989472 3.84055888 21.4375 6.625 C22.57533936 7.0694043 23.71317871 7.51380859 24.88549805 7.97167969 C28.26258766 9.30091662 31.63277065 10.64599797 35 12 C35.9497168 12.3805957 36.89943359 12.76119141 37.87792969 13.15332031 C40.36641332 14.16286018 42.84142 15.19868772 45.3125 16.25 C46.02784912 16.54213379 46.74319824 16.83426758 47.48022461 17.13525391 C53.12345836 19.60935736 56.54523933 22.8607796 59.1875 28.5625 C65.60613382 37.19445583 80.14628627 38.62256394 90 41 C90 40.34 90 39.68 90 39 C90.76666992 38.80889648 91.53333984 38.61779297 92.32324219 38.42089844 C95.80263543 37.54498938 99.27618587 36.64776842 102.75 35.75 C103.9565625 35.44964844 105.163125 35.14929688 106.40625 34.83984375 C107.56640625 34.53691406 108.7265625 34.23398438 109.921875 33.921875 C111.52434082 33.51340332 111.52434082 33.51340332 113.15917969 33.09667969 C117.1467845 31.55729151 119.25781739 29.43858122 121.203125 25.66796875 C121.54859375 24.84941406 121.8940625 24.03085938 122.25 23.1875 C125.52263553 16.4227229 130.12435419 11.79507328 137.25 9.1875 C148.97162286 5.93037667 161.91851084 3.41159584 173.2578125 8.83203125 C175 10 175 10 177 13 C177.54008724 17.68075611 177.09062818 21.10251032 174.50390625 25.11328125 C167.20725011 34.26726804 157.97887049 39.3403765 147 43 C131.63611351 44.19629817 131.63611351 44.19629817 125.04296875 39.05859375 C119.00085006 35.92778273 110.36195472 38.749575 104.1875 40.5625 C102.78699952 41.02784912 101.38902974 41.50145434 100 42 C100 42.33 100 42.66 100 43 C101.18029785 43.16081055 102.3605957 43.32162109 103.57666016 43.48730469 C107.97345699 44.09052774 112.36716864 44.71411228 116.76025391 45.34375 C118.65856672 45.61294998 120.55766219 45.87669157 122.45751953 46.13476562 C125.1952986 46.50764282 127.92962101 46.90034857 130.6640625 47.296875 C131.50804596 47.40747253 132.35202942 47.51807007 133.22158813 47.63201904 C138.46782394 48.41741965 141.87206656 49.61545481 146 53 C147.00164468 55.75721547 146.66783182 58.16607019 146 61 C144.4375 63.5 144.4375 63.5 142 65 C135.13665046 65.8829508 129.87675877 63.17687104 123.6875 60.4375 C121.55150324 59.51915223 119.41477622 58.60250121 117.27734375 57.6875 C116.22144043 57.23246094 115.16553711 56.77742188 114.07763672 56.30859375 C109.66739999 54.433386 105.21852179 52.66838063 100.75 50.9375 C100.01869873 50.65124756 99.28739746 50.36499512 98.53393555 50.07006836 C88.9640752 46.36865841 82.26537384 46.50623366 72.6875 50.0625 C71.81955811 50.37324463 70.95161621 50.68398926 70.05737305 51.00415039 C65.67013717 52.58998944 61.32492453 54.25570639 57.0078125 56.0234375 C56.21673096 56.3443335 55.42564941 56.66522949 54.6105957 56.99584961 C53.12632261 57.60403418 51.64771286 58.22631654 50.17651367 58.86547852 C45.13501898 60.94089681 40.45264833 61.73793642 35 61 C32.56051243 59.22582722 32.19570091 57.99481295 31.625 55.09375 C31.26872363 51.11533052 31.26872363 51.11533052 32 49 C36.32210036 45.56914599 39.42654163 44.46328018 44.90234375 44.171875 C46.20494141 44.09453125 47.50753906 44.0171875 48.84960938 43.9375 C50.21222824 43.87475319 51.57485858 43.81225512 52.9375 43.75 C54.296316 43.67349265 55.65504268 43.59538093 57.01367188 43.515625 C63.01762336 43.1832263 68.98593289 42.96353657 75 43 C75 42.34 75 41.68 75 41 C63.49783956 37.29634057 63.49783956 37.29634057 52 39 C41.43837791 40.29761764 33.34578261 37.39535646 24 33 C22.93120605 32.5064502 21.86241211 32.01290039 20.76123047 31.50439453 C17.10382754 29.81071797 13.45625161 28.0977646 9.8125 26.375 C9.20919861 26.09177887 8.60589722 25.80855774 7.98431396 25.51675415 C6.24159505 24.69503754 4.50544442 23.85943564 2.76953125 23.0234375 C1.24743042 22.29519775 1.24743042 22.29519775 -0.30541992 21.55224609 C-3.02334984 19.98654904 -4.90356954 18.31590784 -7 16 C0.63096841 18.45660053 8.08971911 21.28854073 15.5625 24.1875 C16.76197266 24.65091797 17.96144531 25.11433594 19.19726562 25.59179688 C22.1322277 26.72602525 25.0664464 27.86213485 28 29 C28 28.34 28 27.68 28 27 C26.865625 26.67 25.73125 26.34 24.5625 26 C19.64742159 24.36424938 14.99821139 22.2542444 10.3125 20.0625 C9.58812744 19.72669922 8.86375488 19.39089844 8.11743164 19.04492188 C3.80956577 17.00188401 -0.10065647 14.74489222 -4 12 C-0.22940531 10.7431351 0.68670275 11.45275817 4.26171875 13.01953125 C5.29876953 13.46490234 6.33582031 13.91027344 7.40429688 14.36914062 C8.48775391 14.84544922 9.57121094 15.32175781 10.6875 15.8125 C17.39941004 18.74362486 23.81418061 21.49679957 31 23 C31 22.34 31 21.68 31 21 C30.12891602 20.71697021 29.25783203 20.43394043 28.36035156 20.14233398 C23.06424402 18.34194985 17.92130809 16.19059769 12.75 14.0625 C11.09871094 13.39831055 11.09871094 13.39831055 9.4140625 12.72070312 C8.36476562 12.28822266 7.31546875 11.85574219 6.234375 11.41015625 C5.27756836 11.01965088 4.32076172 10.62914551 3.33496094 10.22680664 C1 9 1 9 -1 6 C3.08122832 6.57238338 6.62600466 7.48255545 10.44140625 9.03125 C11.43720703 9.42957031 12.43300781 9.82789063 13.45898438 10.23828125 C14.48314453 10.65464844 15.50730469 11.07101563 16.5625 11.5 C18.60390055 12.32679922 20.6468217 13.14985612 22.69140625 13.96875 C23.59060791 14.33419922 24.48980957 14.69964844 25.41625977 15.07617188 C27.93763733 15.97770194 30.36464457 16.54657999 33 17 C33 16.34 33 15.68 33 15 C31.7625 14.60941406 30.525 14.21882812 29.25 13.81640625 C23.35767226 11.85037292 17.69200535 9.41557838 12 6.9375 C10.95199219 6.49083984 9.90398437 6.04417969 8.82421875 5.58398438 C7.83035156 5.15279297 6.83648437 4.72160156 5.8125 4.27734375 C4.91144531 3.88796631 4.01039063 3.49858887 3.08203125 3.09741211 C1 2 1 2 0 0 Z " fill="#080808" transform="translate(165,220)"/>
<path d="M0 0 C4.34356085 3.38689736 7.45907684 7.49441803 9.19921875 12.71484375 C9.29191844 14.28304272 9.3299022 15.85484627 9.33203125 17.42578125 C9.33332031 18.34101562 9.33460938 19.25625 9.3359375 20.19921875 C9.33207031 21.153125 9.32820313 22.10703125 9.32421875 23.08984375 C9.32808594 24.03601563 9.33195312 24.9821875 9.3359375 25.95703125 C9.33464844 26.87484375 9.33335937 27.79265625 9.33203125 28.73828125 C9.33090332 29.57278809 9.32977539 30.40729492 9.32861328 31.26708984 C9.19305503 33.83144271 8.76137759 36.21220415 8.19921875 38.71484375 C6.31581359 35.88973601 5.91087652 34.82609022 5.38671875 31.65234375 C3.1745013 21.16983644 -2.70454489 11.93729418 -11.61328125 5.90234375 C-20.91616255 0.62714669 -31.40215337 -1.12537619 -41.86328125 1.4765625 C-47.88593164 3.54684857 -53.49206541 5.82894895 -57.55078125 10.90234375 C-61.31388743 19.36933265 -61.34413926 28.59402093 -61.80078125 37.71484375 C-65.2994837 34.2161413 -65.72490424 29.5192939 -65.92578125 24.7421875 C-65.92578125 22.06336631 -65.88936675 19.39209456 -65.80078125 16.71484375 C-74.03946996 23.47376799 -79.57535818 30.16641052 -81.125 40.9765625 C-81.48210474 48.03245969 -78.97319601 53.53380786 -75.05078125 59.27734375 C-69.2760333 62.96676605 -61.80786371 60.18096974 -55.58398438 58.85986328 C-49.65852191 57.62269498 -43.83964779 56.99953317 -37.80078125 56.71484375 C-37.0428125 56.66199219 -36.28484375 56.60914063 -35.50390625 56.5546875 C-21.21161791 55.98792434 -5.2583924 59.24584569 7.41015625 65.87109375 C10.33171658 67.24894753 12.12020959 66.58626144 15.19921875 65.71484375 C20.97434773 63.20391811 25.56019922 60.68132269 28.19921875 54.71484375 C29.34335665 48.23541015 27.92508625 43.05163009 24.19921875 37.71484375 C22.01346965 35.09996592 19.75664776 32.58821456 17.41796875 30.109375 C15.21524991 27.73214498 13.19420185 25.2675153 11.19921875 22.71484375 C20.5993398 25.24820971 28.58306479 29.53130512 34.19921875 37.71484375 C37.45575733 43.46734775 39.03812742 48.10843798 38.19921875 54.71484375 C36.14043749 61.40588286 31.82431621 65.73315712 26.19921875 69.71484375 C19.63165497 73.14788845 11.46446053 72.64431469 4.5078125 70.6640625 C2.05148062 69.83903261 -0.34930311 68.93602114 -2.76953125 68.00390625 C-12.70530683 64.54446037 -23.07740545 64.37533058 -33.48828125 64.40234375 C-34.74189453 64.38623047 -35.99550781 64.37011719 -37.28710938 64.35351562 C-44.46577826 64.34973937 -50.14629256 64.9823939 -56.80078125 67.71484375 C-56.80078125 71.01484375 -56.80078125 74.31484375 -56.80078125 77.71484375 C-55.22039062 77.39257812 -53.64 77.0703125 -52.01171875 76.73828125 C-46.11666648 75.6724558 -40.40846714 75.32973017 -34.42578125 75.33984375 C-32.92349976 75.34226074 -32.92349976 75.34226074 -31.39086914 75.34472656 C-21.23045573 75.51251773 -11.93621217 77.20649901 -3.80078125 83.71484375 C-6.61093566 85.11992095 -7.80698017 84.19256826 -10.80078125 83.27734375 C-17.83289768 81.56449304 -24.64161812 81.40593203 -31.86328125 81.40234375 C-32.95060547 81.39726807 -34.03792969 81.39219238 -35.15820312 81.38696289 C-42.54079393 81.44870698 -49.55962841 82.29170346 -56.80078125 83.71484375 C-56.14078125 86.02484375 -55.48078125 88.33484375 -54.80078125 90.71484375 C-53.32172893 90.74263388 -51.84251067 90.76158331 -50.36328125 90.77734375 C-49.53957031 90.78894531 -48.71585938 90.80054688 -47.8671875 90.8125 C-45.37396428 90.73309799 -43.00273393 90.5266695 -40.53125 90.23046875 C-28.91662066 88.87790654 -17.62380092 88.62188983 -6.5625 92.7421875 C-3.64901611 93.76829427 -0.85441688 94.28634244 2.19921875 94.71484375 C2.1528125 93.61785156 2.10640625 92.52085937 2.05859375 91.390625 C2.02106085 89.93622525 1.98466232 88.48179592 1.94921875 87.02734375 C1.91570312 86.30611328 1.8821875 85.58488281 1.84765625 84.84179688 C1.77630471 80.93530032 1.92387156 79.14550041 4.08984375 75.7578125 C6.7885363 73.14407879 7.53403052 72.72814751 11.32421875 72.65234375 C12.27296875 72.67296875 13.22171875 72.69359375 14.19921875 72.71484375 C12.19921875 76.71484375 12.19921875 76.71484375 11.15478516 78.47558594 C9.93689135 81.32957726 9.87630141 83.69403325 9.78515625 86.79296875 C9.74648438 87.953125 9.7078125 89.11328125 9.66796875 90.30859375 C9.63703125 91.51515625 9.60609375 92.72171875 9.57421875 93.96484375 C9.53554688 95.186875 9.496875 96.40890625 9.45703125 97.66796875 C9.36279767 100.68344315 9.2771842 103.69891203 9.19921875 106.71484375 C8.67465088 106.37420898 8.15008301 106.03357422 7.60961914 105.68261719 C2.37450127 102.31782495 2.37450127 102.31782495 -3.36328125 99.96484375 C-4.04519531 99.743125 -4.72710937 99.52140625 -5.4296875 99.29296875 C-13.05657257 97.4333658 -20.60944857 97.53147938 -28.42578125 97.52734375 C-29.62074219 97.51509766 -30.81570312 97.50285156 -32.046875 97.49023438 C-48.25701942 97.41936464 -48.25701942 97.41936464 -62.80078125 103.71484375 C-62.81536377 102.93882812 -62.82994629 102.1628125 -62.8449707 101.36328125 C-62.91989891 97.81332602 -63.01641238 94.26426532 -63.11328125 90.71484375 C-63.13583984 89.49410156 -63.15839844 88.27335937 -63.18164062 87.015625 C-63.38024638 80.33524971 -63.60609308 74.66727843 -66.80078125 68.71484375 C-68.8760196 67.25252688 -68.8760196 67.25252688 -71.36328125 66.77734375 C-78.82677773 64.30410298 -84.86097148 59.3822966 -88.55078125 52.40625 C-91.02702582 45.09359024 -91.19524273 36.81416491 -88.69921875 29.4765625 C-83.20163693 18.84888427 -75.7649915 13.25692174 -64.80078125 8.71484375 C-64.14078125 8.71484375 -63.48078125 8.71484375 -62.80078125 8.71484375 C-62.55328125 7.69390625 -62.55328125 7.69390625 -62.30078125 6.65234375 C-58.74925295 -0.30273251 -52.39147437 -3.88210802 -45.29296875 -6.55859375 C-29.64745409 -11.1198253 -13.66272168 -8.64645672 0 0 Z " fill="#FE930A" transform="translate(278.80078125,104.28515625)"/>
<path d="M0 0 C2.51475368 3.77213052 2.44796416 5.52035842 2 10 C-2.32986409 20.62784822 -12.06594151 26.55153628 -22.21484375 30.90625 C-29.35691968 33.7109923 -36.43122151 33.71332734 -44 33 C-46.2838461 31.89188388 -47.96109817 30.61560277 -49.9453125 29.0546875 C-55.37624032 26.26694888 -62.98742218 28.39975749 -68.5625 30.0625 C-73.68046781 31.4583094 -78.72714096 31.15584805 -84 31 C-84 30.34 -84 29.68 -84 29 C-76.56906027 26.63887883 -69.19930374 24.48208164 -61.55859375 22.90625 C-57.62949286 21.51456846 -55.68815464 19.33385819 -53.796875 15.66796875 C-53.45140625 14.84941406 -53.1059375 14.03085938 -52.75 13.1875 C-49.47736447 6.4227229 -44.87564581 1.79507328 -37.75 -0.8125 C-25.78611518 -4.13694141 -11.01132162 -7.38202952 0 0 Z " fill="#030303" transform="translate(340,230)"/>
<path d="M0 0 C4.95 0 9.9 0 15 0 C15 4.95 15 9.9 15 15 C15.886875 14.505 16.77375 14.01 17.6875 13.5 C23.11177243 11.16578441 29.21907928 11.22921057 35 12 C37.359375 13.34375 37.359375 13.34375 39 15 C39.5625 17.875 39.5625 17.875 39 21 C36.12096841 24.53709595 32.99100148 26.83345634 29 29 C30.08784968 32.24983135 30.08784968 32.24983135 32 35 C35.06481021 35.1613058 37.05549278 34.98150241 40 34 C42.7822335 36.26056472 43.90092877 37.4055726 44.5 41 C43.89445555 44.63326668 42.8441085 45.74144325 40 48 C36.49094383 49.75452809 32.82934707 49.53987516 29 49 C23.63885464 46.76792781 21.06303072 43.07419813 18.82421875 37.8671875 C17.9460207 35.7332901 17.9460207 35.7332901 16 33 C15.95875 34.258125 15.9175 35.51625 15.875 36.8125 C15.85179687 37.52019531 15.82859375 38.22789062 15.8046875 38.95703125 C15.86745538 41.31359719 15.86745538 41.31359719 18 44 C19.485 44.495 19.485 44.495 21 45 C21 45.99 21 46.98 21 48 C13.08 48 5.16 48 -3 48 C-3 47.01 -3 46.02 -3 45 C-1.515 44.505 -1.515 44.505 0 44 C1.62202834 40.75594331 1.14173614 37.1962735 1.1328125 33.6328125 C1.13376923 32.80167938 1.13472595 31.97054626 1.13571167 31.11422729 C1.13639282 29.35398279 1.13454304 27.59373578 1.13037109 25.83349609 C1.12503539 23.14284589 1.13031128 20.45236365 1.13671875 17.76171875 C1.13605769 16.05208297 1.13477596 14.34244729 1.1328125 12.6328125 C1.13483673 11.82852814 1.13686096 11.02424377 1.13894653 10.19558716 C1.12375442 6.56146956 0.88754182 3.55016727 0 0 Z " fill="#070707" transform="translate(185,305)"/>
<path d="M0 0 C1.28374512 0.01321289 2.56749023 0.02642578 3.89013672 0.04003906 C16.53356736 0.27995236 27.6403843 1.90218334 39.45703125 6.5859375 C42.93244446 7.80991178 46.21121733 8.1609881 49.875 8.4375 C49.215 9.4275 48.555 10.4175 47.875 11.4375 C47.875 10.7775 47.875 10.1175 47.875 9.4375 C45.9878125 9.80875 45.9878125 9.80875 44.0625 10.1875 C43.35480469 10.32671875 42.64710938 10.4659375 41.91796875 10.609375 C39.09819139 11.75238227 38.29709545 12.73205011 36.875 15.4375 C36.50510978 18.24979514 36.27461941 20.86980942 36.1875 23.6875 C36.15333984 24.43257812 36.11917969 25.17765625 36.08398438 25.9453125 C36.00185946 27.77552492 35.93674347 29.60648669 35.875 31.4375 C31.42918327 31.647642 28.32101003 31.02688703 24.1875 29.4375 C13.43586355 25.94414396 1.99133337 26.88645816 -9.10302734 28.20825195 C-11.59210184 28.49045926 -14.05812014 28.63941591 -16.5625 28.6875 C-17.38621094 28.71328125 -18.20992187 28.7390625 -19.05859375 28.765625 C-19.74050781 28.65734375 -20.42242187 28.5490625 -21.125 28.4375 C-23.2769437 25.20958445 -23.32586443 24.15349191 -23.125 20.4375 C-14.71569981 17.94816569 -7.00600718 16.95309875 1.75 17.0625 C2.88099121 17.06830078 4.01198242 17.07410156 5.17724609 17.08007812 C13.39736358 17.2075401 20.977801 18.02526467 28.875 20.4375 C27.38065577 19.63520863 25.87913528 18.84628133 24.375 18.0625 C23.5396875 17.62164062 22.704375 17.18078125 21.84375 16.7265625 C14.36829936 13.48064314 7.60198933 13.14957245 -0.4375 13.25 C-1.40623047 13.25064453 -2.37496094 13.25128906 -3.37304688 13.25195312 C-10.00905501 13.29179574 -16.52387994 13.76170966 -23.125 14.4375 C-23.455 11.1375 -23.785 7.8375 -24.125 4.4375 C-15.86900867 0.48183053 -9.09159365 -0.16355624 0 0 Z " fill="#FEFDFA" transform="translate(245.125,167.5625)"/>
<path d="M0 0 C3.9823902 2.56523333 7.63676386 5.56388212 8.69140625 10.3984375 C8.88152746 13.69796044 8.4572214 16.01461496 6.8125 18.875 C3.10411756 21.04576045 -0.54101001 21.07378984 -4.75 20.375 C-5.41 19.715 -6.07 19.055 -6.75 18.375 C-6.6571875 16.4878125 -6.6571875 16.4878125 -6.5625 14.5625 C-6.47883272 11.02916631 -6.68890306 10.46125451 -8.875 7.375 C-11.60191118 5.1840905 -11.60191118 5.1840905 -14.8125 4.8125 C-18.46789196 5.51246867 -19.55381229 6.39445953 -21.75 9.375 C-24.72583629 15.47546439 -24.74962042 22.69083198 -22.9921875 29.16796875 C-20.58115439 35.66977689 -20.58115439 35.66977689 -15.75 40.375 C-12.0824787 40.70917929 -12.0824787 40.70917929 -8.75 40.375 C-6.87679197 37.56518796 -6.6942773 35.58358081 -6.875 32.3125 C-6.75 28.375 -6.75 28.375 -5.1875 26.3125 C-1.65035538 24.95205976 0.62061908 25.4028444 4.25 26.375 C6.6875 27.9375 6.6875 27.9375 8.25 30.375 C8.97112998 35.34278433 8.89079353 37.30012054 6.3125 41.625 C0.66569109 47.35001956 -5.50092595 48.63354377 -13.375 48.8125 C-21.63052838 48.55708944 -27.02887199 46.87360102 -33.171875 41.21484375 C-38.75758541 34.70279027 -39.41270811 26.94311207 -39.125 18.64453125 C-38.23629886 10.89616817 -34.65174084 6.78205479 -28.84765625 1.8203125 C-21.47787048 -3.25756597 -8.22913498 -3.79077235 0 0 Z " fill="#050505" transform="translate(272.75,305.625)"/>
<path d="M0 0 C5.28 0 10.56 0 16 0 C16.495 6.93 16.495 6.93 17 14 C18.32 13.34 19.64 12.68 21 12 C26.79480489 11.14998631 32.41656905 10.8741309 37.3125 14.4375 C39.20472909 16.3897266 39.92267684 17.49560123 40.3359375 20.19140625 C40.00043289 25.40938591 38.17328178 28.83506767 35 33 C34.67 33.99 34.34 34.98 34 36 C34.886875 35.5875 35.77375 35.175 36.6875 34.75 C40 34 40 34 42.9375 35.4375 C45 38 45 38 45 41.5625 C43.66374781 46.1558669 43.66374781 46.1558669 41 48 C36.64550465 49.45149845 32.54618074 49.6423951 28 49 C24.37566485 47.12259439 22.30918877 44.92756632 21 41 C20.29767562 35.14729686 21.80967679 31.97621961 24.90625 27.2109375 C26.20699451 24.58157539 26.34669293 22.89873809 26 20 C25.34 19.34 24.68 18.68 24 18 C20.40320934 18.32326553 20.40320934 18.32326553 17 19 C16.97099545 22.6041498 16.95319982 26.20826962 16.9375 29.8125 C16.92912109 30.83666016 16.92074219 31.86082031 16.91210938 32.91601562 C16.90888672 33.89892578 16.90566406 34.88183594 16.90234375 35.89453125 C16.89710693 36.80050049 16.89187012 37.70646973 16.88647461 38.63989258 C16.90079019 41.15284039 16.90079019 41.15284039 18 44 C19.485 44.495 19.485 44.495 21 45 C21 45.99 21 46.98 21 48 C13.41 48 5.82 48 -2 48 C-1.67 47.01 -1.34 46.02 -1 45 C-0.01 44.505 -0.01 44.505 1 44 C2.2578149 40.22655531 2.16236879 36.68556287 2.16796875 32.75390625 C2.17129715 31.94638412 2.17462555 31.138862 2.17805481 30.30686951 C2.18311513 28.59968637 2.18546341 26.89249336 2.18530273 25.18530273 C2.18748882 22.57584315 2.20565262 19.96680665 2.22460938 17.35742188 C2.22754357 15.69791811 2.22952819 14.03841234 2.23046875 12.37890625 C2.23765427 11.59963272 2.24483978 10.82035919 2.25224304 10.01747131 C2.23479798 5.87379763 1.9019939 3.80398779 0 0 Z " fill="#050505" transform="translate(289,305)"/>
<path d="M0 0 C4.29 0 8.58 0 13 0 C17.06153565 9.46975332 20.47809965 19.03179895 23.69335938 28.81640625 C26.40409853 36.90766719 26.40409853 36.90766719 31 44 C33.12119128 44.95231597 33.12119128 44.95231597 35 45 C35 45.99 35 46.98 35 48 C26.42 48 17.84 48 9 48 C9 47.01 9 46.02 9 45 C9.99 45 10.98 45 12 45 C12 42.36 12 39.72 12 37 C4.08 37.495 4.08 37.495 -4 38 C-4 39.98 -4 41.96 -4 44 C-3.01 44.33 -2.02 44.66 -1 45 C-1 45.99 -1 46.98 -1 48 C-6.94 48 -12.88 48 -19 48 C-19 47.01 -19 46.02 -19 45 C-18.21625 44.938125 -17.4325 44.87625 -16.625 44.8125 C-15.75875 44.544375 -14.8925 44.27625 -14 44 C-12.90432024 41.79836311 -12.90432024 41.79836311 -12 39 C-11.5970874 37.90502197 -11.1941748 36.81004395 -10.77905273 35.68188477 C-9.58363538 32.35853343 -8.3910842 29.03422186 -7.2043457 25.70776367 C-6.69347928 24.27860631 -6.18046034 22.85021654 -5.6652832 21.42260742 C-4.91645967 19.34726918 -4.17433693 17.26964026 -3.43359375 15.19140625 C-2.99072021 13.95592041 -2.54784668 12.72043457 -2.09155273 11.44750977 C-0.88974981 7.6517909 0 3.99531095 0 0 Z " fill="#080808" transform="translate(102,305)"/>
<path d="M0 0 C1.28648437 -0.01675781 2.57296875 -0.03351563 3.8984375 -0.05078125 C9.05175529 0.45158621 12.30820491 2.03035741 16 5.625 C17.98634528 8.91010951 18.25466542 10.5345075 17.625 14.3125 C15.42727578 18.09258566 12.93709593 20.16700552 8.83984375 21.75390625 C4.19485623 22.9253934 -0.60543339 23.08537778 -5.375 23.3125 C-3.85293991 25.94151288 -2.53134036 28.15615964 -0.375 30.3125 C2.45131118 31.1485067 2.45131118 31.1485067 5.625 30.3125 C7.98212263 27.87005166 9.82012747 25.17981522 11.625 22.3125 C14.09300047 23.46423355 15.67283565 24.36033565 17.625 26.3125 C17.6875 29.6875 17.6875 29.6875 16.625 33.3125 C11.71683802 37.98123944 6.03850479 37.86759486 -0.45263672 37.78540039 C-6.89424147 37.50830175 -11.29138015 36.2948899 -15.921875 31.81640625 C-20.573389 26.57691997 -20.72115246 21.98723576 -20.65625 15.26171875 C-20.15610645 10.01715796 -17.65097083 7.46087375 -13.875 4.0625 C-9.06353996 0.69447797 -5.97788136 0.01789785 0 0 Z " fill="#060606" transform="translate(358.375,316.6875)"/>
<path d="M0 0 C2.42731399 1.21590868 3.87348678 2.18598678 5.8125 4.125 C6.1875 7.5625 6.1875 7.5625 5.8125 11.125 C3.56873774 13.800255 2.21734065 14.08368973 -1.25 14.4375 C-4.1875 14.125 -4.1875 14.125 -7.1875 12.125 C-7.375 9 -7.375 9 -7.1875 6.125 C-9.89629335 4.77060332 -12.19683268 5.05998549 -15.1875 5.125 C-15.19728542 7.01198405 -15.19728542 7.01198405 -14.1875 9.125 C-11.96549049 10.60535865 -9.85942156 11.847915 -7.5 13.0625 C4.40444583 19.30889166 4.40444583 19.30889166 6.8125 24.125 C7.1875 27.5 7.1875 27.5 6.8125 31.125 C2.91174133 35.24865917 -1.26409882 36.94902925 -6.859375 37.4609375 C-8.21848842 37.49061319 -9.57806603 37.50303659 -10.9375 37.5 C-11.64471191 37.49911377 -12.35192383 37.49822754 -13.08056641 37.49731445 C-18.7131313 37.37015249 -23.58032221 36.48486868 -28.1875 33.125 C-30.1875 30.125 -30.1875 30.125 -30 26.5625 C-29.1875 23.125 -29.1875 23.125 -26.1875 21.125 C-20.07757383 20.57947088 -20.07757383 20.57947088 -17.25 22.3125 C-15.86180027 24.68060543 -16.04531578 26.42349983 -16.1875 29.125 C-15.17913938 30.35767348 -15.17913938 30.35767348 -13.12109375 30.22265625 C-12.29738281 30.21105469 -11.47367188 30.19945312 -10.625 30.1875 C-9.79871094 30.17847656 -8.97242188 30.16945313 -8.12109375 30.16015625 C-7.48300781 30.14855469 -6.84492188 30.13695312 -6.1875 30.125 C-7.52949546 26.9098552 -8.64601812 25.5240938 -11.7421875 23.94140625 C-12.43957031 23.57080078 -13.13695312 23.20019531 -13.85546875 22.81835938 C-14.58378906 22.44517578 -15.31210938 22.07199219 -16.0625 21.6875 C-25.1543173 17.02774033 -25.1543173 17.02774033 -28.1875 12.125 C-29.0086336 9.08397419 -28.65115043 7.37055304 -28.1875 4.125 C-21.13684651 -3.52999521 -9.15965443 -3.97858572 0 0 Z " fill="#070707" transform="translate(170.1875,317.875)"/>
<path d="M0 0 C1.62890625 1.16796875 1.62890625 1.16796875 3.62890625 4.16796875 C4.08557688 7.74522205 4.06668056 9.5025518 2.06640625 12.54296875 C-1.25078797 14.75443156 -3.46055134 14.59457338 -7.37109375 14.16796875 C-8.36109375 13.50796875 -9.35109375 12.84796875 -10.37109375 12.16796875 C-10.77953298 9.45593223 -10.50446242 6.92425455 -10.37109375 4.16796875 C-11.69109375 4.49796875 -13.01109375 4.82796875 -14.37109375 5.16796875 C-14.70109375 9.45796875 -15.03109375 13.74796875 -15.37109375 18.16796875 C-12.73109375 18.16796875 -10.09109375 18.16796875 -7.37109375 18.16796875 C-7.37109375 19.81796875 -7.37109375 21.46796875 -7.37109375 23.16796875 C-9.68109375 23.49796875 -11.99109375 23.82796875 -14.37109375 24.16796875 C-14.4250408 26.77241223 -14.46473844 29.37573873 -14.49609375 31.98046875 C-14.51285156 32.71845703 -14.52960938 33.45644531 -14.546875 34.21679688 C-14.58184003 38.08043301 -14.5650693 39.87700543 -12.37109375 43.16796875 C-10.88609375 43.66296875 -10.88609375 43.66296875 -9.37109375 44.16796875 C-9.37109375 45.15796875 -9.37109375 46.14796875 -9.37109375 47.16796875 C-17.29109375 47.16796875 -25.21109375 47.16796875 -33.37109375 47.16796875 C-33.37109375 46.17796875 -33.37109375 45.18796875 -33.37109375 44.16796875 C-31.88609375 43.67296875 -31.88609375 43.67296875 -30.37109375 43.16796875 C-29.2528556 40.93149244 -29.17713314 39.51905346 -29.0546875 37.03515625 C-29.01279297 36.22949219 -28.97089844 35.42382812 -28.92773438 34.59375 C-28.88841797 33.75199219 -28.84910156 32.91023438 -28.80859375 32.04296875 C-28.74381836 30.76873047 -28.74381836 30.76873047 -28.67773438 29.46875 C-28.57155139 27.36868652 -28.47080878 25.26834927 -28.37109375 23.16796875 C-29.36109375 23.16796875 -30.35109375 23.16796875 -31.37109375 23.16796875 C-31.37109375 21.51796875 -31.37109375 19.86796875 -31.37109375 18.16796875 C-30.05109375 18.16796875 -28.73109375 18.16796875 -27.37109375 18.16796875 C-27.4175 17.52730469 -27.46390625 16.88664062 -27.51171875 16.2265625 C-27.72581544 11.0958883 -27.68679983 6.98785883 -24.7578125 2.640625 C-17.84982918 -4.69545869 -8.37047363 -4.41352246 0 0 Z " fill="#070707" transform="translate(414.37109375,305.83203125)"/>
<path d="M0 0 C2.72093207 0.55529226 4.73213013 1.13356329 7.0625 2.625 C7.7225 1.965 8.3825 1.305 9.0625 0.625 C11.98585087 0.00301045 13.2380268 -0.15034559 16.0625 0.625 C17.9435696 1.89009527 19.77377081 3.23239928 21.5625 4.625 C25.84181711 8.12905555 25.84181711 8.12905555 31.0625 9.25 C34.22583644 8.7857438 34.22583644 8.7857438 37.0625 6.625 C37.40588883 10.3164299 37.34061415 12.17177695 35.375 15.375 C31.24457983 19.39378719 27.2648635 19.91757115 21.625 19.9375 C16.6586791 19.86463073 13.28186223 19.43790815 9.0625 16.625 C8.27875 16.233125 7.495 15.84125 6.6875 15.4375 C6.15125 15.169375 5.615 14.90125 5.0625 14.625 C4.670625 15.07875 4.27875 15.5325 3.875 16 C-0.76642202 20.16127492 -6.06452837 19.98820058 -11.98828125 19.87890625 C-16.86343416 19.4591911 -20.23501395 18.21764824 -23.875 14.8125 C-25.25302396 11.97539185 -25.14969778 9.73723413 -24.9375 6.625 C-23.4525 7.615 -23.4525 7.615 -21.9375 8.625 C-18.99781524 9.23743433 -17.76209242 9.41302035 -14.9375 8.625 C-13.05729197 7.35862459 -11.22715653 6.01640878 -9.4375 4.625 C-4.375 0.69444444 -4.375 0.69444444 0 0 Z " fill="#060606" transform="translate(245.9375,215.375)"/>
<path d="M0 0 C2.375 0.875 2.375 0.875 4.375 2.875 C4.21379096 6.98583054 3.49028381 9.94169669 1.3125 13.375 C-0.89747346 16.93818185 -1.02195703 19.66725548 -0.625 23.875 C-0.315625 24.98875 -0.315625 24.98875 0 26.125 C0.12375 26.7025 0.2475 27.28 0.375 27.875 C-0.285 28.865 -0.945 29.855 -1.625 30.875 C-1.625 29.885 -1.625 28.895 -1.625 27.875 C-2.264375 27.771875 -2.90375 27.66875 -3.5625 27.5625 C-4.243125 27.335625 -4.92375 27.10875 -5.625 26.875 C-7.05755946 22.57732163 -6.88970086 18.44017888 -6.9375 13.9375 C-6.96650391 13.03064453 -6.99550781 12.12378906 -7.02539062 11.18945312 C-7.08905151 4.53444163 -7.08905151 4.53444163 -4.76953125 1.23828125 C-2.625 -0.125 -2.625 -0.125 0 0 Z " fill="#F8F8F8" transform="translate(311.625,322.125)"/>
<path d="M0 0 C2.875 2.0625 2.875 2.0625 5 5 C5.06641554 8.85210127 4.87229157 10.99848005 2.3125 13.9375 C-0.76819895 15.35295627 -2.64720251 15.55879958 -6 15 C-8.4375 12.9375 -8.4375 12.9375 -10 10 C-10 6.15050705 -9.86589381 3.95866815 -7.25 1.0625 C-4.45370167 -0.25797421 -3.05488134 -0.59607441 0 0 Z " fill="#FE9815" transform="translate(138,373)"/>
<path d="M0 0 C0.66 0.33 1.32 0.66 2 1 C1.04454634 2.46022163 0.08553322 3.91811468 -0.875 5.375 C-1.40867187 6.18710937 -1.94234375 6.99921875 -2.4921875 7.8359375 C-4 10 -4 10 -6 12 C-8.8125 12.4375 -8.8125 12.4375 -12 12 C-14.875 9.6875 -14.875 9.6875 -17 7 C-17 6.01 -17 5.02 -17 4 C-15.78763672 3.81824219 -15.78763672 3.81824219 -14.55078125 3.6328125 C-13.48214844 3.46523438 -12.41351563 3.29765625 -11.3125 3.125 C-10.25675781 2.96257812 -9.20101563 2.80015625 -8.11328125 2.6328125 C-5.00136449 2.10111833 -5.00136449 2.10111833 -2.23046875 0.8671875 C-1.49441406 0.58101563 -0.75835937 0.29484375 0 0 Z " fill="#F2F2F2" transform="translate(370,336)"/>
<path d="M0 0 C6 0 6 0 9 2 C9.1875 4.875 9.1875 4.875 9 8 C8.78918149 11.89459074 8.78918149 11.89459074 10 15 C7.5625 14.625 7.5625 14.625 5 14 C4.67 13.34 4.34 12.68 4 12 C3.67 12.99 3.34 13.98 3 15 C2.01 15 1.02 15 0 15 C0 10.05 0 5.1 0 0 Z " fill="#FEA129" transform="translate(247,373)"/>
<path d="M0 0 C0.66 0 1.32 0 2 0 C2.67610423 1.89248819 3.34050439 3.7891602 4 5.6875 C4.37125 6.74324219 4.7425 7.79898437 5.125 8.88671875 C6 12 6 12 6 17 C2.37 17 -1.26 17 -5 17 C-4.54619105 15.10307857 -4.08675008 13.20750405 -3.625 11.3125 C-3.36976562 10.25675781 -3.11453125 9.20101563 -2.8515625 8.11328125 C-2.08094511 5.29593234 -1.14501457 2.68331675 0 0 Z " fill="#F2F2F2" transform="translate(105,319)"/>
<path d="M0 0 C1.32 0 2.64 0 4 0 C4.99 1.98 5.98 3.96 7 6 C7.33 4.02 7.66 2.04 8 0 C8.99 0 9.98 0 11 0 C11 4.62 11 9.24 11 14 C7 13 7 13 5.25 10.4375 C4.8375 9.633125 4.425 8.82875 4 8 C3.67 9.98 3.34 11.96 3 14 C2.01 14 1.02 14 0 14 C0 9.38 0 4.76 0 0 Z " fill="#FE9106" transform="translate(199,374)"/>
<path d="M0 0 C1.32 0 2.64 0 4 0 C4.99 1.98 5.98 3.96 7 6 C7.33 4.02 7.66 2.04 8 0 C8.99 0 9.98 0 11 0 C11 4.62 11 9.24 11 14 C7 13 7 13 5.25 10.4375 C4.8375 9.633125 4.425 8.82875 4 8 C3.67 9.98 3.34 11.96 3 14 C2.01 14 1.02 14 0 14 C0 9.38 0 4.76 0 0 Z " fill="#FE9106" transform="translate(151,374)"/>
<path d="M0 0 C2.375 0.3125 2.375 0.3125 5 1 C7 4 7 4 6.9375 7.0625 C6 10 6 10 3.8125 11.375 C0.7857491 12.04761131 -1.90881126 12.14377622 -5 12 C-5.35338623 9.03155565 -5.5417682 6.84401782 -3.88671875 4.265625 C-2.64496832 2.79651181 -1.32662082 1.39295186 0 0 Z " fill="#EFEFEF" transform="translate(356,322)"/>
<path d="M0 0 C2.9375 0.875 2.9375 0.875 4.3125 2.9375 C4.51875 3.576875 4.725 4.21625 4.9375 4.875 C2.27083333 4.20833333 -0.39583333 3.54166667 -3.0625 2.875 C-1.43883534 6.12232932 1.69137839 6.57655136 4.9375 7.875 C5.0625 10.25 5.0625 10.25 4.9375 12.875 C2.9375 14.875 2.9375 14.875 -0.5 15.1875 C-4.0625 14.875 -4.0625 14.875 -6 13.5 C-7.0625 11.875 -7.0625 11.875 -7.0625 9.875 C-4.39583333 10.54166667 -1.72916667 11.20833333 0.9375 11.875 C1.2675 11.215 1.5975 10.555 1.9375 9.875 C0.803125 9.565625 -0.33125 9.25625 -1.5 8.9375 C-5.0625 7.875 -5.0625 7.875 -6.0625 6.875 C-6.3125 4.4375 -6.3125 4.4375 -6.0625 1.875 C-3.0625 -0.125 -3.0625 -0.125 0 0 Z " fill="#FE9918" transform="translate(367.0625,373.125)"/>
<path d="M0 0 C2.97 0 5.94 0 9 0 C9 1.32 9 2.64 9 4 C7.35 4 5.7 4 4 4 C4 4.66 4 5.32 4 6 C5.65 6 7.3 6 9 6 C9 6.99 9 7.98 9 9 C7.02 9 5.04 9 3 9 C3 9.99 3 10.98 3 12 C4.98 12 6.96 12 9 12 C9 12.99 9 13.98 9 15 C6.03 15 3.06 15 0 15 C0 10.05 0 5.1 0 0 Z " fill="#FEA12A" transform="translate(264,373)"/>
<path d="M0 0 C2.05078125 0.03255208 4.1015625 0.06510417 6.15234375 0.09765625 C6.15234375 1.08765625 6.15234375 2.07765625 6.15234375 3.09765625 C4.50234375 3.09765625 2.85234375 3.09765625 1.15234375 3.09765625 C1.15234375 4.08765625 1.15234375 5.07765625 1.15234375 6.09765625 C2.80234375 6.09765625 4.45234375 6.09765625 6.15234375 6.09765625 C6.15234375 7.08765625 6.15234375 8.07765625 6.15234375 9.09765625 C4.50234375 9.09765625 2.85234375 9.09765625 1.15234375 9.09765625 C1.15234375 10.08765625 1.15234375 11.07765625 1.15234375 12.09765625 C2.80234375 12.09765625 4.45234375 12.09765625 6.15234375 12.09765625 C6.15234375 13.08765625 6.15234375 14.07765625 6.15234375 15.09765625 C3.18234375 15.09765625 0.21234375 15.09765625 -2.84765625 15.09765625 C-2.87451037 12.78521833 -2.89398466 10.47269355 -2.91015625 8.16015625 C-2.92175781 6.87238281 -2.93335938 5.58460938 -2.9453125 4.2578125 C-2.81833933 0.14896085 -2.81833933 0.14896085 0 0 Z " fill="#FEA026" transform="translate(220.84765625,372.90234375)"/>
<path d="M0 0 C3.42346911 0.87781259 4.50751867 2.76576841 6.4375 5.625 C3.1375 5.295 -0.1625 4.965 -3.5625 4.625 C-3.5625 6.605 -3.5625 8.585 -3.5625 10.625 C0.13291586 11.57524979 2.74208414 11.57524979 6.4375 10.625 C4.6875 14.5 4.6875 14.5 2.4375 15.625 C-1.1442622 16.01432198 -2.92531721 16.06096718 -5.9375 14 C-8.07573431 10.87488831 -8.2454669 9.34337535 -7.5625 5.625 C-5.24697809 2.58174263 -3.75314408 0.915401 0 0 Z " fill="#FE9714" transform="translate(288.5625,372.375)"/>
<path d="M0 0 C6.15234375 -0.09765625 6.15234375 -0.09765625 8 0 C9 1 9 1 9.1875 3.9375 C9 7 9 7 7 9 C5.68 9 4.36 9 3 9 C3 10.65 3 12.3 3 14 C2.01 14 1.02 14 0 14 C0 9.38 0 4.76 0 0 Z " fill="#FEA129" transform="translate(315,374)"/>
<path d="M0 0 C1.04542969 0.54269531 2.09085938 1.08539063 3.16796875 1.64453125 C5.8125 3.1875 5.8125 3.1875 7.8125 5.1875 C7.8125 6.1775 7.8125 7.1675 7.8125 8.1875 C4.79925805 9.69412097 2.12963623 9.36520373 -1.1875 9.1875 C-3.1875 7.1875 -3.1875 7.1875 -3.3125 4.0625 C-3.27125 3.11375 -3.23 2.165 -3.1875 1.1875 C-5.8275 0.5275 -8.4675 -0.1325 -11.1875 -0.8125 C-11.1875 -1.1425 -11.1875 -1.4725 -11.1875 -1.8125 C-6.54721832 -3.29636087 -4.21986761 -2.23836456 0 0 Z " fill="#E9E9E9" transform="translate(156.1875,339.8125)"/>
<path d="M0 0 C2.64 0 5.28 0 8 0 C8 0.66 8 1.32 8 2 C6.35 2 4.7 2 3 2 C3 2.99 3 3.98 3 5 C4.65 5 6.3 5 8 5 C8 5.99 8 6.98 8 8 C6.35 8 4.7 8 3 8 C3 8.99 3 9.98 3 11 C4.65 11 6.3 11 8 11 C8 11.99 8 12.98 8 14 C5.36 14 2.72 14 0 14 C0 9.38 0 4.76 0 0 Z " fill="#FE9106" transform="translate(344,374)"/>
<path d="M0 0 C-0.32158729 3.00148136 -0.98153021 3.98205792 -3.1875 6.125 C-6.07903627 8.05269085 -8.66599477 9.06957994 -12 10 C-12.31424507 6.54330418 -12.37956836 4.60098323 -10.5 1.625 C-6.86748926 -0.73613198 -4.28156703 -0.2854378 0 0 Z " fill="#EBEBEB" transform="translate(212,323)"/>
<path d="M0 0 C5.625 -0.25 5.625 -0.25 9 2 C9.1875 5.125 9.1875 5.125 9 8 C10.98 8.66 12.96 9.32 15 10 C14.01 10.66 13.02 11.32 12 12 C10.20601733 11.04600922 8.41488345 10.08665974 6.625 9.125 C5.62726563 8.59132813 4.62953125 8.05765625 3.6015625 7.5078125 C1 6 1 6 -1 4 C-0.625 1.875 -0.625 1.875 0 0 Z " fill="#E7E7E7" transform="translate(155,322)"/>
<path d="M0 0 C5.40508043 0.61303628 9.92439045 2.44380693 14.875 4.5625 C16.050625 5.0565332 16.050625 5.0565332 17.25 5.56054688 C19.16908756 6.36796786 21.0848865 7.18319769 23 8 C23 8.99 23 9.98 23 11 C17.77562324 9.34561403 12.65280815 7.53243908 7.5625 5.5 C6.04849609 4.89671875 6.04849609 4.89671875 4.50390625 4.28125 C2 3 2 3 0 0 Z " fill="#1C1C1C" transform="translate(164,226)"/>
<path d="M0 0 C0.99 0 1.98 0 3 0 C3 3.96 3 7.92 3 12 C4.65 12 6.3 12 8 12 C8 12.99 8 13.98 8 15 C5.36 15 2.72 15 0 15 C0 10.05 0 5.1 0 0 Z " fill="#FE9816" transform="translate(171,373)"/>
<path d="M0 0 C2.5 0.125 2.5 0.125 3.5 1.125 C3.54080783 3.12458364 3.54254356 5.12545254 3.5 7.125 C1.1875 7.8125 1.1875 7.8125 -1.5 8.125 C-3.375 6.9375 -3.375 6.9375 -4.5 5.125 C-4.08147866 1.5675686 -3.71072057 0.18553603 0 0 Z " fill="#FFF8F0" transform="translate(135.5,376.875)"/>
<path d="M0 0 C0.99 0 1.98 0 3 0 C3 4.62 3 9.24 3 14 C2.01 14 1.02 14 0 14 C0 9.38 0 4.76 0 0 Z " fill="#FE9002" transform="translate(332,374)"/>
<path d="M0 0 C0.99 0 1.98 0 3 0 C3 4.62 3 9.24 3 14 C2.01 14 1.02 14 0 14 C0 9.38 0 4.76 0 0 Z " fill="#FE9002" transform="translate(303,374)"/>
<path d="M0 0 C0.99 0 1.98 0 3 0 C3 4.62 3 9.24 3 14 C2.01 14 1.02 14 0 14 C0 9.38 0 4.76 0 0 Z " fill="#FE9002" transform="translate(187,374)"/>
<path d="M0 0 C5.11365014 1.0681847 10.07227969 2.23107476 15 4 C14.67 4.99 14.34 5.98 14 7 C4.22210581 3.99633316 4.22210581 3.99633316 0 1 C0 0.67 0 0.34 0 0 Z " fill="#2E2E2E" transform="translate(165,220)"/>
<path d="M0 0 C3.55780196 0.60990891 6.6828589 1.5783681 10 3 C10 3.99 10 4.98 10 6 C6.40992874 4.66654496 3.20429093 3.1056769 0 1 C0 0.67 0 0.34 0 0 Z " fill="#141414" transform="translate(161,231)"/>
<path d="M0 0 C3.34373475 0.55728913 6.03312999 1.35173889 9 3 C9 3.66 9 4.32 9 5 C5.7 4.01 2.4 3.02 -1 2 C-0.67 1.34 -0.34 0.68 0 0 Z " fill="#E2E2E2" transform="translate(184,244)"/>
<path d="M0 0 C-0.598125 0.433125 -1.19625 0.86625 -1.8125 1.3125 C-3.98975883 2.90681105 -3.98975883 2.90681105 -5.625 4.6875 C-7 6 -7 6 -9 6 C-8.6875 4.125 -8.6875 4.125 -8 2 C-4.77208445 -0.1519437 -3.71599191 -0.20086443 0 0 Z " fill="#FEA22C" transform="translate(138,373)"/>
<path d="M0 0 C2.97 0.495 2.97 0.495 6 1 C5.67 1.99 5.34 2.98 5 4 C3.0625 3.6875 3.0625 3.6875 1 3 C0.67 2.01 0.34 1.02 0 0 Z " fill="#FEEFDB" transform="translate(363,382)"/>
</svg>
